<?xml version="1.0" encoding="utf-8"?>
<!-- Generator: Adobe Illustrator 16.0.0, SVG Export Plug-In . SVG Version: 6.00 Build 0)  -->
<!DOCTYPE svg PUBLIC "-//W3C//DTD SVG 1.1//EN" "http://www.w3.org/Graphics/SVG/1.1/DTD/svg11.dtd">
<svg version="1.1" id="Layer_2" xmlns="http://www.w3.org/2000/svg" xmlns:xlink="http://www.w3.org/1999/xlink" x="0px" y="0px"
	 width="2194.438px" height="574.07px" viewBox="0 0 2194.438 574.07" enable-background="new 0 0 2194.438 574.07"
	 xml:space="preserve">
<g>
	<g>
		<g>
			<path d="M1221.008,510.646v-91.932h37.553c9.648,0,17.123,2.285,22.428,6.852c5.301,4.563,7.953,10.931,7.953,19.099
				c0,5.389-1.195,9.974-3.584,13.76c-2.395,3.781-5.738,6.669-10.041,8.666c-4.303,2.006-9.322,3.003-15.063,3.003l2.348-1.697
				h2.607c3.564,0,6.76,0.868,9.584,2.606c2.824,1.743,5.064,4.655,6.715,8.736l13.041,30.907h-11.867l-12.518-30.387
				c-1.479-3.91-3.693-6.449-6.648-7.625c-2.955-1.175-6.648-1.758-11.082-1.758h-20.604v39.77H1221.008L1221.008,510.646z
				 M1231.831,462.4h25.166c6.955,0,12.236-1.502,15.844-4.498c3.605-3.004,5.41-7.327,5.41-12.976c0-5.649-1.805-9.952-5.41-12.91
				c-3.607-2.951-8.889-4.437-15.844-4.437h-25.166V462.4z"/>
			<path d="M1342.924,511.813c-10.258,0-18.342-2.971-24.254-8.927c-5.912-5.955-8.865-14.235-8.865-24.84
				c0-6.869,1.307-12.846,3.912-17.934c2.607-5.086,6.26-9.038,10.953-11.863c4.695-2.82,10.084-4.238,16.168-4.238
				c5.998,0,11.039,1.26,15.127,3.779c4.084,2.522,7.213,6.112,9.387,10.764c2.174,4.648,3.262,10.147,3.262,16.487v3.919h-50.723
				v-6.654h43.813l-2.219,1.699c0-6.957-1.564-12.39-4.693-16.301c-3.129-3.912-7.779-5.871-13.953-5.871
				c-6.52,0-11.604,2.286-15.256,6.851c-3.648,4.559-5.477,10.71-5.477,18.447v1.177c0,8.168,2.021,14.365,6.064,18.577
				c4.041,4.219,9.713,6.328,17.016,6.328c3.91,0,7.582-0.589,11.018-1.766c3.434-1.176,6.717-3.106,9.846-5.804l3.65,7.437
				c-2.867,2.782-6.5,4.931-10.889,6.452C1352.42,511.056,1347.792,511.813,1342.924,511.813z"/>
			<path d="M1414.901,511.813c-5.826,0-10.912-1.363-15.258-4.107c-4.348-2.734-7.715-6.619-10.104-11.669
				c-2.393-5.041-3.586-11.082-3.586-18.121c0-7.131,1.193-13.217,3.586-18.26c2.389-5.04,5.756-8.904,10.104-11.602
				c4.346-2.692,9.432-4.043,15.258-4.043c5.91,0,11.02,1.5,15.318,4.499c4.305,2.997,7.15,7.064,8.541,12.19h-1.563l1.434-15.515
				h10.17c-0.262,2.521-0.502,5.061-0.715,7.627c-0.221,2.566-0.328,5.066-0.328,7.496v50.335h-10.561V495.26h1.434
				c-1.391,5.125-4.26,9.17-8.604,12.128C1425.676,510.34,1420.637,511.813,1414.901,511.813z M1416.985,503.215
				c6.26,0,11.215-2.156,14.867-6.459c3.648-4.303,5.475-10.579,5.475-18.84c0-8.345-1.824-14.673-5.475-18.976
				c-3.652-4.304-8.607-6.452-14.867-6.452c-6.172,0-11.104,2.148-14.799,6.452c-3.695,4.303-5.543,10.631-5.543,18.976
				c0,8.261,1.848,14.537,5.543,18.84S1410.813,503.215,1416.985,503.215z"/>
			<path d="M1473.446,510.646v-95.973h10.563v95.973H1473.446z"/>
			<path d="M1550.114,510.646v-91.932h58.676v8.866h-48.115v31.947h45.246v8.997h-45.246v33.121h48.115v8.999L1550.114,510.646
				L1550.114,510.646z"/>
			<path d="M1651.559,511.813c-5.217,0-10.086-0.712-14.604-2.147c-4.52-1.435-8.26-3.454-11.213-6.066l3.648-7.431
				c3.217,2.525,6.719,4.394,10.496,5.608c3.781,1.221,7.713,1.821,11.799,1.821c5.221,0,9.15-0.928,11.805-2.801
				c2.646-1.869,3.977-4.454,3.977-7.759c0-2.521-0.846-4.538-2.543-6.06c-1.695-1.522-4.455-2.717-8.279-3.592l-12.127-2.477
				c-5.564-1.214-9.736-3.277-12.518-6.188c-2.783-2.913-4.172-6.63-4.172-11.154c0-3.82,0.998-7.188,3-10.102
				c1.996-2.911,4.91-5.217,8.734-6.916c3.822-1.692,8.303-2.54,13.432-2.54c4.779,0,9.193,0.719,13.234,2.155
				c4.041,1.432,7.406,3.501,10.104,6.188l-3.781,7.3c-2.607-2.52-5.586-4.404-8.932-5.668c-3.348-1.257-6.803-1.893-10.367-1.893
				c-5.131,0-8.977,1.025-11.539,3.063c-2.563,2.042-3.848,4.723-3.848,8.02c0,2.526,0.805,4.59,2.414,6.196
				c1.605,1.606,4.107,2.801,7.494,3.584l12.129,2.477c5.91,1.306,10.322,3.331,13.234,6.065c2.914,2.737,4.369,6.412,4.369,11.017
				c0,3.911-1.088,7.329-3.26,10.241c-2.174,2.911-5.195,5.144-9.063,6.713C1661.315,511.037,1656.772,511.813,1651.559,511.813z"/>
			<path d="M1722.231,511.813c-6.434,0-11.346-1.842-14.734-5.538c-3.391-3.696-5.086-9.278-5.086-16.756v-36.116h-12.779v-8.216
				h12.779V427.32l10.563-2.996v20.863h18.777v8.216h-18.777v34.94c0,5.218,0.893,8.934,2.674,11.147
				c1.779,2.22,4.453,3.33,8.02,3.33c1.65,0,3.131-0.15,4.434-0.457c1.303-0.308,2.479-0.674,3.521-1.111v8.868
				c-1.221,0.523-2.674,0.935-4.369,1.24C1725.555,511.663,1723.879,511.813,1722.231,511.813z"/>
			<path d="M1774.778,511.813c-5.826,0-10.91-1.363-15.256-4.107c-4.348-2.734-7.715-6.619-10.105-11.669
				c-2.391-5.041-3.586-11.082-3.586-18.121c0-7.131,1.195-13.217,3.586-18.26c2.391-5.04,5.758-8.904,10.105-11.602
				c4.346-2.692,9.43-4.043,15.256-4.043c5.912,0,11.02,1.5,15.322,4.499c4.303,2.997,7.148,7.064,8.539,12.19h-1.563l1.434-15.515
				h10.17c-0.26,2.521-0.5,5.061-0.717,7.627c-0.219,2.566-0.326,5.066-0.326,7.496v50.335h-10.561V495.26h1.434
				c-1.391,5.125-4.26,9.17-8.605,12.128C1785.555,510.34,1780.516,511.813,1774.778,511.813z M1776.864,503.215
				c6.26,0,11.215-2.156,14.865-6.459c3.652-4.303,5.477-10.579,5.477-18.84c0-8.345-1.824-14.673-5.477-18.976
				c-3.65-4.304-8.605-6.452-14.865-6.452c-6.172,0-11.105,2.148-14.799,6.452c-3.695,4.303-5.541,10.631-5.541,18.976
				c0,8.261,1.846,14.537,5.541,18.84C1765.758,501.058,1770.692,503.215,1776.864,503.215z"/>
			<path d="M1856.532,511.813c-6.432,0-11.344-1.842-14.732-5.538c-3.391-3.696-5.086-9.278-5.086-16.756v-36.116h-12.779v-8.216
				h12.779V427.32l10.561-2.996v20.863h18.779v8.216h-18.779v34.94c0,5.218,0.895,8.934,2.678,11.147
				c1.775,2.22,4.453,3.33,8.018,3.33c1.65,0,3.131-0.15,4.434-0.457c1.303-0.308,2.477-0.674,3.521-1.111v8.868
				c-1.219,0.523-2.674,0.935-4.369,1.24C1859.858,511.663,1858.184,511.813,1856.532,511.813z"/>
			<path d="M1912.602,511.813c-10.258,0-18.342-2.971-24.252-8.927c-5.912-5.955-8.865-14.235-8.865-24.84
				c0-6.869,1.305-12.846,3.91-17.934c2.605-5.086,6.26-9.038,10.951-11.863c4.697-2.82,10.084-4.238,16.168-4.238
				c6,0,11.041,1.26,15.127,3.779c4.088,2.522,7.217,6.112,9.391,10.764c2.172,4.648,3.26,10.147,3.26,16.487v3.919h-50.723v-6.654
				h43.813l-2.219,1.699c0-6.957-1.564-12.39-4.693-16.301c-3.129-3.912-7.779-5.871-13.953-5.871
				c-6.518,0-11.604,2.286-15.254,6.851c-3.65,4.559-5.477,10.71-5.477,18.447v1.177c0,8.168,2.02,14.365,6.063,18.577
				c4.041,4.219,9.713,6.328,17.018,6.328c3.912,0,7.582-0.589,11.018-1.766c3.434-1.176,6.715-3.106,9.844-5.804l3.652,7.437
				c-2.869,2.782-6.5,4.931-10.889,6.452C1922.098,511.056,1917.469,511.813,1912.602,511.813z"/>
		</g>
		<rect x="959.06" y="463.398" width="159.546" height="6.104"/>
		<rect x="2034.891" y="463.398" width="159.547" height="6.104"/>
		<g>
			<path d="M1312.524,300.056l-67.146-151.521h38.643l46.482,109.99L1312.524,300.056 M1413.542,148.686h37.316l-87.447,196.337
				h-33.816L1413.542,148.686z"/>
			<path d="M1470.348,345.022V148.686l35.936,34.676v161.661L1470.348,345.022L1470.348,345.022z"/>
			<path d="M1617.956,347.81c-15.781,0-30.314-1.996-43.588-5.985c-13.271-3.99-24.637-9.509-34.105-16.575l11.131-28.128
				c6.314,4.462,12.91,8.215,19.775,11.281c6.859,3.063,14.203,5.387,22,6.961c7.807,1.58,16.057,2.37,24.787,2.37
				c14.668,0,25.25-2.413,31.75-7.243c6.496-4.825,9.742-11.143,9.742-18.941c0-6.863-2.219-12.11-6.678-15.731
				c-4.455-3.619-12.441-6.641-23.947-9.051l-31.471-6.406c-18.012-3.715-31.479-9.932-40.387-18.666
				c-8.914-8.722-13.367-20.41-13.367-35.085c0-12.251,3.246-22.929,9.742-32.026c6.51-9.095,15.605-16.153,27.307-21.162
				c11.693-5.019,25.34-7.521,40.938-7.521c13.922,0,26.822,1.997,38.703,5.988c11.881,3.993,21.813,9.701,29.803,17.125
				l-11.139,26.734c-7.994-6.68-16.709-11.644-26.182-14.894c-9.471-3.252-20.051-4.881-31.752-4.881
				c-13.188,0-23.439,2.557-30.775,7.654c-7.332,5.116-10.994,12.119-10.994,21.031c0,6.876,2.264,12.35,6.822,16.438
				c4.543,4.091,12.291,7.231,23.254,9.472l31.193,6.12c18.559,3.707,32.309,9.798,41.217,18.234
				c8.906,8.452,13.361,19.821,13.361,34.115c0,11.7-3.154,21.964-9.467,30.782c-6.316,8.814-15.221,15.686-26.74,20.612
				C1647.381,345.342,1633.739,347.81,1617.956,347.81z"/>
			<path d="M1729.079,345.022V148.686l35.928,34.676v161.661L1729.079,345.022L1729.079,345.022z"/>
			<path d="M1801.762,246.711c0-20.604,3.771-38.434,11.283-53.478c7.516-15.034,18.334-26.678,32.447-34.946
				c14.098-8.26,30.912-12.389,50.404-12.389c19.309,0,36.016,4.129,50.131,12.389c14.107,8.27,25.014,19.912,32.723,34.946
				c7.703,15.044,11.555,32.777,11.555,53.198c0,20.607-3.852,38.479-11.555,53.607c-7.709,15.14-18.615,26.88-32.723,35.236
				c-14.115,8.354-30.822,12.533-50.131,12.533c-19.492,0-36.246-4.18-50.273-12.533c-14.014-8.356-24.834-20.098-32.449-35.236
				C1805.559,284.912,1801.762,267.138,1801.762,246.711z M1839.364,246.711c0,22.1,4.734,39.372,14.197,51.805
				c9.467,12.439,23.582,18.66,42.336,18.66c18.197,0,32.211-6.221,42.045-18.66c9.846-12.433,14.773-29.705,14.773-51.805
				c0-22.279-4.879-39.544-14.625-51.8c-9.742-12.255-23.813-18.379-42.193-18.379c-18.754,0-32.869,6.124-42.336,18.379
				C1844.098,207.167,1839.364,224.431,1839.364,246.711z"/>
			<path d="M2060.762,259.792v85.23h-33.416V209.171L2060.762,259.792z M2027.346,148.686l130.205,196.337h36.887V148.686h-33.426
				v143.867l-94.51-143.867H2027.346z"/>
		</g>
		<polyline points="959.06,322.263 1086.659,322.263 1086.659,293.758 1035.938,293.758 1120.122,216.171 1120.122,345.022 
			1155.157,345.022 1155.157,322.375 1179.708,322.375 1179.708,293.873 1155.157,293.873 1155.157,187.773 1155.157,148.396 		"/>
	</g>
	<g>
		<polygon points="153.889,510.289 577.121,510.289 577.121,382.722 464.762,382.722 730.202,147.68 730.202,0.013 		"/>
		<polygon points="832.252,115.239 806.734,86.406 806.734,574.07 832.252,574.07 		"/>
		<polygon points="781.229,57.608 755.716,28.784 755.716,574.07 781.229,574.07 		"/>
		<polygon points="627.392,28.823 601.877,0 601.877,79.898 627.392,57.209 		"/>
		<path d="M602.634,294.761v279.31h127.567V181.816L602.634,294.761z M653.664,507.525h-25.556v-48.267h25.556V507.525
			L653.664,507.525z M653.664,433.8h-25.556v-48.275h25.556V433.8L653.664,433.8z M704.729,507.525h-25.554v-48.267h25.554V507.525z
			 M704.729,433.8h-25.554v-48.275h25.554V433.8z"/>
		<polygon points="0,510.289 115.498,510.289 576.389,102.243 576.389,0.013 		"/>
	</g>
</g>
</svg>
